<?xml version="1.0" encoding="UTF-8"?>
<svg width="75.6px" height="77.4px" viewBox="0 0 75.6 77.4" version="1.1" xmlns="http://www.w3.org/2000/svg" xmlns:xlink="http://www.w3.org/1999/xlink">
    <title>logo-purpleishtech copy</title>
    <g id="Page-1" stroke="none" stroke-width="1" fill="none" fill-rule="evenodd">
        <g id="logo-purpleishtech-copy" fill-rule="nonzero">
            <g id="SvgjsG1022" fill="#111111">
                <rect id="Rectangle" x="0" y="0" width="75.6" height="77.4" rx="10"></rect>
            </g>
            <g id="SvgjsG1023" transform="translate(16, 16)" fill="#FFFFFF">
                <path d="M42.5716609,12.9626921 C43.407289,14.8491028 43.8300661,16.8844062 43.7374435,18.8946765 C43.6606592,20.9042938 43.0705605,22.8591647 42.1339074,24.6023422 C41.19314,26.3469347 39.9071548,27.8902824 38.4662252,29.1830811 C37.8318745,29.7337014 37.1844194,30.2442034 36.5105925,30.6973686 C35.8416851,31.1331956 35.2003795,31.5469064 34.5149067,31.9079932 C29.7950707,34.4876043 24.4946833,35.4678151 19.4438656,34.9053313 L17.7594615,44.6454011 C17.5035357,45.9826064 11.9369699,45.9499544 11.5426434,44.592086 L6.93480347,14.8788323 C4.11247974,15.712436 1.8905161,16.1177553 1.80823325,15.5380747 L1.71901512,15.1845741 L0,8.36358653 L4.40583336,5.11852918 C7.58373658,2.77760369 11.1491093,1.29716532 14.701639,0.566741709 C18.262767,-0.172040792 21.8386972,-0.174783554 25.2697617,0.478222335 C28.6973433,1.12430602 32.0032421,2.41230481 34.9425686,4.3527 C35.6626742,4.86601006 36.3800153,5.37790521 37.0559101,5.94306653 L38.0416718,6.83198259 C38.3757772,7.13011645 38.6732145,7.41927103 39.0073199,7.77274991 C40.4966831,9.32230153 41.7376741,11.0711387 42.5712778,12.9623384 L42.5716609,12.9626921 Z M31.9935249,20.6729005 C32.2494507,19.649785 31.8993306,18.6037478 31.2228088,17.9950071 C30.8983901,17.6830288 30.5317634,17.4595699 30.1782737,17.302525 C29.9043675,17.1212851 29.5079949,16.9476203 29.2015892,16.7595017 C28.8591902,16.5920953 28.494675,16.4565136 28.1529399,16.302255 C26.7037386,15.7834594 25.117508,15.5593584 23.5562016,15.6306049 C23.2905891,15.6402986 23.0277084,15.6728227 22.7648495,15.7019036 L20.6086251,28.1705862 C23.9463051,27.6676703 27.0744686,26.2502175 29.4390123,24.2019621 C29.8173719,23.8941306 30.1694359,23.5330547 30.4986979,23.2072538 C30.8127877,22.8828351 31.0873904,22.5356037 31.3391585,22.1959583 C31.6566876,21.6951539 31.8773385,21.1866872 31.9935684,20.673399 L31.9935249,20.6729005 Z" id="Shape"></path>
            </g>
        </g>
    </g>
</svg>