<?xml version="1.0" encoding="UTF-8"?>
<svg width="88.4458919px" height="90.5517464px" viewBox="0 0 88.4458919 90.5517464" version="1.1" xmlns="http://www.w3.org/2000/svg" xmlns:xlink="http://www.w3.org/1999/xlink">
    <title>logo-purpleishtech</title>
    <defs>
        <linearGradient x1="0%" y1="0%" x2="100%" y2="0%" id="linearGradient-1">
            <stop stop-color="#8F5E25" offset="0%"></stop>
            <stop stop-color="#FBF4A1" offset="50%"></stop>
            <stop stop-color="#8F5E25" offset="100%"></stop>
        </linearGradient>
    </defs>
    <g id="Page-1" stroke="none" stroke-width="1" fill="none" fill-rule="evenodd">
        <g id="logo-purpleishtech" fill-rule="nonzero">
            <g id="SvgjsG1022" fill="url(#linearGradient-1)">
                <rect id="Rectangle" x="0" y="0" width="88.4458919" height="90.5517464" rx="11.699192"></rect>
            </g>
            <g id="SvgjsG1023" transform="translate(18.7187, 18.7187)" fill="#230E6A">
                <path d="M49.8054036,15.1653024 C50.783021,17.3722505 51.2776361,19.7533911 51.1692751,22.1052449 C51.0794437,24.4563348 50.3890759,26.7433757 49.2932674,28.7827526 C48.1926456,30.8237849 46.6881468,32.629377 45.0023756,34.141847 C44.2602365,34.7860283 43.5027664,35.3832744 42.7144433,35.913441 C41.9318757,36.4233235 41.1816,36.9073317 40.3796522,37.329774 C34.8578254,40.3477106 28.6568004,41.4944781 22.7477517,40.8364174 L20.7771351,52.2315122 C20.4777226,53.7959343 13.9652903,53.7577341 13.5039602,52.1691377 L8.11315976,17.4070317 C4.81126902,18.3822807 2.21175109,18.8564714 2.1154868,18.178292 L2.0111088,17.7647248 L0,9.7847205 L5.15446906,5.98826559 C8.87235907,3.2495719 13.0435571,1.51757862 17.1997298,0.66304201 C21.3659618,-0.201273827 25.5495113,-0.204482637 29.5635795,0.559481494 C33.5735731,1.3153472 37.4412076,2.82220173 40.879982,5.09230732 C41.7224474,5.69283862 42.5616785,6.29171458 43.3524209,6.95290766 L44.5056824,7.99286764 C44.8965588,8.34166017 45.2445364,8.67994767 45.6354127,9.09348939 C47.3778473,10.9063396 48.8297064,12.9523378 49.8049554,15.1648886 L49.8054036,15.1653024 Z M37.4298392,24.1856233 C37.7292517,22.9886608 37.3196395,21.7648819 36.5281636,21.0527044 C36.14862,20.687715 35.7196964,20.4262861 35.3061419,20.2425563 C34.9856939,20.0305202 34.5219699,19.8273465 34.1635,19.6072629 C33.7629209,19.4114109 33.3364675,19.2527913 32.9366651,19.0723212 C31.2412166,18.4653723 29.3854549,18.2031922 27.5588527,18.2865448 C27.2481075,18.2978857 26.9405583,18.3359363 26.6330347,18.3699586 L24.1104263,32.9573097 C28.0152422,32.3689388 31.6749407,30.7106336 34.4412658,28.3143403 C34.883916,27.9542023 35.2958024,27.5317727 35.6810124,27.1506119 C36.0484721,26.7710683 36.369735,26.3648355 36.6642834,25.9674779 C37.0357668,25.3815772 37.2939105,24.7867123 37.4298901,24.1862065 L37.4298392,24.1856233 Z" id="Shape"></path>
            </g>
        </g>
    </g>
</svg>