<?xml version="1.0" encoding="utf-8"?>
<!-- Generator: Adobe Illustrator 23.0.4, SVG Export Plug-In . SVG Version: 6.00 Build 0)  -->
<svg version="1.1" xmlns="http://www.w3.org/2000/svg" xmlns:xlink="http://www.w3.org/1999/xlink" viewBox="0 0 402.25 77.4" preserveAspectRatio="xMidYMid meet" class="css-g5ufxp" id="aehcadgg"><defs id="SvgjsDefs1021"><linearGradient id="SvgjsLinearGradient1028"><stop id="SvgjsStop1029" stop-color="#8f5e25" offset="0"></stop><stop id="SvgjsStop1030" stop-color="#fbf4a1" offset="0.5"></stop><stop id="SvgjsStop1031" stop-color="#8f5e25" offset="1"></stop></linearGradient><linearGradient id="SvgjsLinearGradient1032"><stop id="SvgjsStop1033" stop-color="#8f5e25" offset="0"></stop><stop id="SvgjsStop1034" stop-color="#fbf4a1" offset="0.5"></stop><stop id="SvgjsStop1035" stop-color="#8f5e25" offset="1"></stop></linearGradient></defs><g id="SvgjsG1022" featurekey="symbolContainer" transform="matrix(0.9,0,0,0.9,0,0)" fill="#111"><rect xmlns="http://www.w3.org/2000/svg" width="84" height="86" rx="10" ry="10"></rect></g><g id="SvgjsG1023" featurekey="monogramFeature-0" transform="matrix(1.0883975687949674,0,0,1.0883975687949674,12.734887736817672,-3.540125146550462)" fill="#fff"><path d="M42.114 29.863 c0.76776 1.7332 1.1562 3.6032 1.0711 5.4502 c-0.070548 1.8464 -0.61272 3.6425 -1.4733 5.2441 c-0.86436 1.6029 -2.0459 3.0209 -3.3698 4.2087 c-0.58283 0.5059 -1.1777 0.97494 -1.7968 1.3913 c-0.61458 0.40043 -1.2038 0.78054 -1.8336 1.1123 c-4.3365 2.3701 -9.2064 3.2707 -13.847 2.7539 l-1.5476 8.949 c-0.23514 1.2286 -5.3496 1.1986 -5.7119 -0.048985 l-4.2336 -27.3 c-2.5931 0.7659 -4.6346 1.1383 -4.7102 0.6057 l-0.081972 -0.32479 l-1.5794 -6.267 l4.048 -2.9815 c2.9198 -2.1508 6.1956 -3.511 9.4596 -4.1821 c3.2719 -0.67878 6.5574 -0.6813 9.7098 -0.08133 c3.1492 0.59361 6.1866 1.777 8.8872 3.5598 c0.66162 0.47162 1.3207 0.94194 1.9417 1.4612 l0.9057 0.81672 c0.30697 0.27392 0.58025 0.53959 0.88722 0.86436 c1.3684 1.4237 2.5086 3.0305 3.2745 4.7681 z M32.395 36.947 c0.23514 -0.94002 -0.086544 -1.9011 -0.70812 -2.4604 c-0.29807 -0.28664 -0.63492 -0.49195 -0.9597 -0.63624 c-0.25166 -0.16652 -0.61584 -0.32608 -0.89736 -0.49892 c-0.31459 -0.15381 -0.6495 -0.27838 -0.96348 -0.42011 c-1.3315 -0.47666 -2.7889 -0.68256 -4.2234 -0.6171 c-0.24404 0.0089064 -0.48557 0.038789 -0.72708 0.065508 l-1.9811 11.456 c3.0666 -0.46207 5.9407 -1.7644 8.1132 -3.6463 c0.34763 -0.28283 0.6711 -0.61458 0.97362 -0.91392 c0.28858 -0.29807 0.54088 -0.6171 0.7722 -0.92916 c0.29174 -0.46013 0.49447 -0.9273 0.60126 -1.3989 z"></path></g><g id="SvgjsG1024" featurekey="nameFeature-0" transform="matrix(1.1824491515757662,0,0,1.1824491515757662,94.10848418988975,3.8110804200588984)" fill="#111"><path d="M13.239 12 c5.1164 0 9.2784 4.1624 9.2784 9.2784 s-4.162 9.2784 -9.2784 9.2784 l-7.2468 0 l0 7.247 c0 1.2128 -0.98328 2.196 -2.196 2.196 s-2.196 -0.98328 -2.196 -2.196 l0 -9.4431 c0 -1.2128 0.98328 -2.196 2.196 -2.196 l9.4428 0 c2.6943 0 4.8864 -2.192 4.8864 -4.8864 s-2.1922 -4.8864 -4.8864 -4.8864 l-4.1412 0 l4.5136 4.5136 c0.85756 0.85756 0.85756 2.248 0 3.1056 c-0.85784 0.85784 -2.248 0.85784 -3.1058 0 l-8.2628 -8.2628 c-0.62808 -0.62808 -0.81584 -1.5726 -0.47576 -2.3932 s1.1408 -1.3555 2.0289 -1.3555 l9.4428 0 z M42.846000000000004 19.412 c1.2128 0 2.196 0.98328 2.196 2.196 l0 8.098 c0 5.6764 -4.6176 10.294 -10.294 10.294 s-10.294 -4.6176 -10.294 -10.294 l0 -8.098 c0 -1.2128 0.98328 -2.196 2.196 -2.196 s2.196 0.98328 2.196 2.196 l0 8.098 c0 3.2543 2.6476 5.902 5.902 5.902 s5.902 -2.6476 5.902 -5.902 l0 -8.098 c0 -1.2128 0.98328 -2.196 2.196 -2.196 z M57.282 19.412 c1.2128 0 2.196 0.98328 2.196 2.196 s-0.98328 2.196 -2.196 2.196 c-3.2543 0 -5.902 2.6476 -5.902 5.902 l0 8.098 c0 1.2128 -0.98328 2.196 -2.196 2.196 s-2.196 -0.98328 -2.196 -2.196 l0 -16.196 c0 -1.2128 0.98328 -2.196 2.196 -2.196 c1.1071 0 2.0201 0.81996 2.1716 1.885 c1.677 -1.1856 3.721 -1.885 5.9264 -1.885 z M71.669 19.412 c5.6612 0 10.266 4.6056 10.266 10.267 s-4.6056 10.267 -10.267 10.267 c-2.1837 0 -4.2088 -0.68764 -5.8744 -1.8543 l0 7.1249 c0 1.2128 -0.98328 2.196 -2.196 2.196 s-2.196 -0.98328 -2.196 -2.196 l0 -23.608 c0 -1.2128 0.98328 -2.196 2.196 -2.196 c1.1027 0 2.013 0.81364 2.1697 1.873 c1.6709 -1.1782 3.7059 -1.873 5.9012 -1.873 z M71.669 35.5528 c3.2392 0 5.8744 -2.6353 5.8744 -5.8744 s-2.6353 -5.8744 -5.8744 -5.8744 s-5.8744 2.6353 -5.8744 5.8744 s2.6353 5.8744 5.8744 5.8744 z M94.315 35.608 c1.2128 0 2.1961 0.98332 2.1961 2.1961 s-0.98328 2.196 -2.196 2.196 c-5.7668 0 -10.459 -4.692 -10.459 -10.459 l0 -15.345 c0 -1.2128 0.98328 -2.196 2.196 -2.196 s2.196 0.98328 2.196 2.196 l0 15.345 c0 3.3452 2.7215 6.0668 6.0668 6.0668 z M106.76400000000001 19.412 c5.6764 0 10.294 4.6176 10.294 10.294 c0 1.2128 -0.98328 2.196 -2.196 2.196 l-13.576 0 c0.87292 2.17 2.9995 3.7059 5.4784 3.7059 c1.5765 0 3.0586 -0.6138 4.1732 -1.7286 c0.85784 -0.85756 2.248 -0.85732 3.1058 0 c0.85784 0.85784 0.85756 2.2482 0 3.1058 c-1.9446 1.9443 -4.5296 3.0149 -7.2792 3.0149 c-5.6764 0 -10.294 -4.6176 -10.294 -10.294 s4.6176 -10.294 10.294 -10.294 z M101.2856 27.509999999999998 l10.957 0 c-0.87292 -2.17 -2.9995 -3.7059 -5.4784 -3.7059 s-4.6056 1.5359 -5.4784 3.7059 z M121.2 19.412 c1.2128 0 2.196 0.98328 2.196 2.196 l0 16.196 c0 1.2128 -0.98328 2.196 -2.196 2.196 s-2.196 -0.98328 -2.196 -2.196 l0 -16.196 c0 -1.2128 0.98328 -2.196 2.196 -2.196 z M119.17139999999999 15.036000000000001 c-0.054884 -0.13176 -0.096056 -0.2718 -0.12352 -0.4118 c-0.030195 -0.14 -0.043908 -0.28551 -0.043908 -0.42824 s0.013711 -0.28824 0.043908 -0.42824 c0.027461 -0.14 0.068632 -0.28 0.12352 -0.41176 s0.12352 -0.26078 0.20312 -0.37883 c0.079608 -0.12078 0.1702 -0.23332 0.27176 -0.33488 s0.2141 -0.19215 0.33488 -0.27176 c0.11805 -0.079608 0.24707 -0.14824 0.37883 -0.20312 s0.27176 -0.096056 0.41176 -0.12352 c0.71372 -0.14551 1.4714 0.090588 1.982 0.59844 c0.098828 0.10156 0.19215 0.2141 0.27176 0.33488 c0.079608 0.11805 0.14824 0.24707 0.20312 0.37883 s0.096056 0.27176 0.12352 0.41176 c0.030195 0.14 0.043908 0.28551 0.043908 0.42824 s-0.013711 0.28824 -0.043908 0.42824 c-0.027461 0.14 -0.068632 0.28 -0.12352 0.41176 s-0.12352 0.26078 -0.20312 0.37883 c-0.079608 0.12078 -0.17293 0.23332 -0.27176 0.33488 c-0.10156 0.10156 -0.2141 0.19215 -0.33488 0.27176 c-0.11805 0.079608 -0.24707 0.14824 -0.37883 0.20312 s-0.27176 0.096056 -0.41176 0.12352 c-0.14 0.030195 -0.28551 0.043908 -0.42824 0.043908 s-0.28824 -0.013711 -0.42824 -0.043908 c-0.14 -0.027461 -0.28 -0.068632 -0.41176 -0.12352 s-0.26078 -0.12352 -0.37883 -0.20312 c-0.12078 -0.079608 -0.23332 -0.1702 -0.33488 -0.27176 s-0.19215 -0.2141 -0.27176 -0.33488 c-0.079608 -0.11805 -0.14824 -0.24707 -0.20312 -0.37883 z M139.321 27.509999999999998 c3.4434 0 6.2452 2.8016 6.2452 6.2452 s-2.8016 6.2452 -6.2452 6.2452 l-8.098 0 c-1.2128 0 -2.196 -0.98328 -2.196 -2.196 s0.98328 -2.196 2.196 -2.196 l8.098 0 c1.0217 0 1.8529 -0.8312 1.8529 -1.8529 s-0.8312 -1.8529 -1.8529 -1.8529 l-8.098 0 c-3.4434 0 -6.2452 -2.8016 -6.2452 -6.2452 s2.8016 -6.2452 6.2452 -6.2452 l8.098 0 c1.2128 0 2.196 0.98328 2.196 2.196 s-0.98328 2.196 -2.196 2.196 l-8.098 0 c-1.0217 0 -1.8529 0.8312 -1.8529 1.8529 s0.8312 1.8529 1.8529 1.8529 l8.098 0 z M157.379 19.467 c5.6612 0 10.267 4.6056 10.267 10.267 l0 8.0706 c0 1.2128 -0.98328 2.196 -2.196 2.196 s-2.196 -0.98328 -2.196 -2.196 l0 -8.0706 c0 -3.2392 -2.6353 -5.8744 -5.8744 -5.8744 s-5.8744 2.6353 -5.8744 5.8744 l0 8.0706 c0 1.2128 -0.98328 2.196 -2.196 2.196 s-2.196 -0.98328 -2.196 -2.196 l0 -23.608 c0 -1.2128 0.98328 -2.196 2.196 -2.196 s2.196 0.98328 2.196 2.196 l0 7.1246 c1.6657 -1.1667 3.6908 -1.8541 5.8744 -1.8541 z M199.222 12 c1.2128 0 2.196 0.98328 2.196 2.196 s-0.98328 2.196 -2.196 2.196 l-11.224 0 l4.5136 4.5136 c0.85756 0.85756 0.85756 2.248 0 3.1056 c-0.4288 0.4288 -0.99096 0.64316 -1.5529 0.64316 c-0.5622 0 -1.1241 -0.21438 -1.5529 -0.64316 l-8.2628 -8.2628 c-0.62808 -0.62808 -0.81584 -1.5726 -0.47576 -2.3932 s1.1408 -1.3555 2.0289 -1.3555 l16.525 0 z M184.2492 20.906 l8.2628 8.2624 c0.41176 0.41176 0.64316 0.9704 0.64316 1.5529 l0 7.0824 c0 1.2128 -0.98328 2.196 -2.196 2.196 s-2.196 -0.98328 -2.196 -2.196 l0 -6.1726 l-7.6196 -7.6196 c-0.85756 -0.85756 -0.85756 -2.248 0 -3.1056 c0.85812 -0.85784 2.2485 -0.85756 3.1058 0 z M207.64800000000002 19.412 c5.6764 0 10.294 4.6176 10.294 10.294 c0 1.2128 -0.98328 2.196 -2.196 2.196 l-13.576 0 c0.87292 2.17 2.9995 3.7059 5.4784 3.7059 c1.5765 0 3.0586 -0.6138 4.1732 -1.7286 c0.85784 -0.85756 2.248 -0.85732 3.1058 0 c0.85784 0.85784 0.85756 2.2482 0 3.1058 c-1.9446 1.9443 -4.5296 3.0149 -7.2792 3.0149 c-5.6764 0 -10.294 -4.6176 -10.294 -10.294 s4.6176 -10.294 10.294 -10.294 z M202.16960000000003 27.509999999999998 l10.957 0 c-0.87292 -2.17 -2.9995 -3.7059 -5.4784 -3.7059 s-4.6056 1.5359 -5.4784 3.7059 z M234.35600000000002 33.8792 c0.85756 -0.85756 2.2482 -0.85772 3.1058 0.00011719 c0.85784 0.85756 0.85784 2.248 0 3.1056 c-1.9443 1.9443 -4.5292 3.0149 -7.2792 3.0149 c-5.6764 0 -10.294 -4.6176 -10.294 -10.294 s4.6176 -10.294 10.294 -10.294 c2.7498 0 5.3348 1.0706 7.2788 3.0152 c0.85784 0.85756 0.85784 2.248 0 3.1056 c-0.85756 0.85756 -2.248 0.85756 -3.1056 0 c-1.1145 -1.1148 -2.5968 -1.7286 -4.1732 -1.7286 c-3.2543 0 -5.902 2.6476 -5.902 5.902 s2.6476 5.902 5.902 5.902 c1.5765 0 3.0586 -0.6138 4.1732 -1.7286 z M250.329 19.467 c5.6612 0 10.267 4.6056 10.267 10.267 l0 8.0706 c0 1.2128 -0.98328 2.196 -2.196 2.196 s-2.196 -0.98328 -2.196 -2.196 l0 -8.0706 c0 -3.2392 -2.6353 -5.8744 -5.8744 -5.8744 s-5.8744 2.6353 -5.8744 5.8744 l0 8.0706 c0 1.2128 -0.98328 2.196 -2.196 2.196 s-2.196 -0.98328 -2.196 -2.196 l0 -23.608 c0 -1.2128 0.98328 -2.196 2.196 -2.196 s2.196 0.98328 2.196 2.196 l0 7.1246 c1.6657 -1.1667 3.6908 -1.8541 5.8744 -1.8541 z"></path></g></svg>